<?xml version="1.0" encoding="UTF-8" standalone="no"?>
<!-- Created with Inkscape (http://www.inkscape.org/) -->

<svg
   width="103.95639mm"
   height="129.22713mm"
   viewBox="0 0 103.95639 129.22713"
   version="1.1"
   id="svg5"
   inkscape:version="1.1 (c68e22c387, 2021-05-23)"
   sodipodi:docname="foxpaw.svg"
   xmlns:inkscape="http://www.inkscape.org/namespaces/inkscape"
   xmlns:sodipodi="http://sodipodi.sourceforge.net/DTD/sodipodi-0.dtd"
   xmlns="http://www.w3.org/2000/svg"
   xmlns:svg="http://www.w3.org/2000/svg">
  <sodipodi:namedview
     id="namedview7"
     pagecolor="#ffffff"
     bordercolor="#cccccc"
     borderopacity="1"
     inkscape:pageshadow="0"
     inkscape:pageopacity="1"
     inkscape:pagecheckerboard="0"
     inkscape:document-units="mm"
     showgrid="false"
     fit-margin-top="0"
     fit-margin-left="0"
     fit-margin-right="0"
     fit-margin-bottom="0"
     inkscape:zoom="0.49071405"
     inkscape:cx="280.20392"
     inkscape:cy="596.07015"
     inkscape:window-width="1280"
     inkscape:window-height="1001"
     inkscape:window-x="-8"
     inkscape:window-y="-8"
     inkscape:window-maximized="1"
     inkscape:current-layer="layer1" />
  <defs
     id="defs2" />
  <g
     inkscape:label="Ebene 1"
     inkscape:groupmode="layer"
     id="layer1"
     transform="translate(-22.711063,-14.892231)">
    <path
       style="fill:#000000;stroke-width:0.264583"
       d="m 65.929338,144.0662 c -8.75033,-0.6568 -15.886043,-2.29525 -20.975353,-4.81623 -7.87333,-3.90004 -9.94312,-9.14463 -6.12953,-15.53147 1.2728,-2.13165 4.40348,-5.37774 9.51009,-9.86068 11.216403,-9.84656 17.732183,-13.76791 24.338473,-14.647472 6.36629,-0.84762 13.37562,2.226952 22.94719,10.065522 6.719572,5.50295 11.982442,10.42378 13.971552,13.06354 1.88073,2.49594 2.58042,4.23336 2.7187,6.75088 0.11224,2.04336 0.0649,2.30093 -0.7134,3.88188 -1.99916,4.06088 -7.66076,7.34177 -16.221652,9.40043 -5.77232,1.38809 -8.6834,1.65462 -18.86274,1.72702 -5.09323,0.0362 -9.85573,0.0212 -10.58333,-0.0334 z M 33.904915,107.82754 c -1.53472,-0.54492 -2.88079,-1.75503 -4.195186,-3.77144 -4.139061,-6.349742 -6.625688,-13.317912 -6.956323,-19.493442 -0.191558,-3.57788 0.250287,-5.4367 1.664373,-7.00192 2.97901,-3.29741 8.473046,-1.53383 17.243306,5.53509 5.21086,4.20001 9.59603,8.76951 10.50618,10.94778 2.4415,5.84334 -6.51389,14.268552 -15.07667,14.184092 -1.16463,-0.0115 -2.59819,-0.19156 -3.18568,-0.40016 z m 74.093175,-0.20819 c -6.37543,-2.08453 -11.244792,-7.03068 -11.244792,-11.422122 0,-0.65361 0.25071,-1.71695 0.55993,-2.37478 1.61845,-3.4431 11.137202,-12.08006 17.027832,-15.45043 3.04359,-1.74141 4.81788,-2.38915 6.56396,-2.39632 1.91109,-0.008 3.00427,0.43912 4.08532,1.67037 3.43793,3.91558 1.41444,15.24231 -4.46224,24.977912 -1.90416,3.15454 -3.12631,4.42514 -4.89171,5.08566 -2.01796,0.75502 -5.16681,0.71779 -7.6383,-0.0903 z M 59.036178,82.228578 c -3.299833,-1.08229 -6.675023,-3.59144 -8.893133,-6.61123 -6.1838,-8.41881 -9.06324,-18.27921 -8.19256,-28.054823 0.66985,-7.52083 2.42582,-12.68749 5.42877,-15.97319 1.85493,-2.02959 3.50999,-2.83094 5.85008,-2.8325 2.630713,-0.002 3.960463,0.67702 6.595793,3.3668 3.46149,3.533 5.71987,8.20954 7.97394,16.512 2.61126,9.618103 3.59972,15.165813 3.64451,20.454613 0.047,5.54749 -0.70018,8.05274 -3.12465,10.47722 -1.89887,1.89887 -3.8743,2.80982 -6.34387,2.92544 -1.08292,0.0507 -2.31675,-0.0603 -2.93888,-0.26433 z m 25.8235,-0.16493 c -1.98161,-0.73661 -4.21225,-2.53352 -5.21245,-4.19894 -2.91859,-4.85965 -2.21184,-14.69711 2.16055,-30.073423 2.79735,-9.83738 6.29952,-15.75068 10.72556,-18.10973 3.43982,-1.83341 6.41972,-1.27474 9.231082,1.73062 2.56175,2.73852 4.19155,6.54626 5.19868,12.14578 0.64865,3.60645 0.65787,10.92166 0.0182,14.419793 -0.59619,3.26018 -2.19978,8.03443 -3.7059,11.0333 -1.53883,3.06399 -4.592952,7.62776 -6.095182,9.10802 -1.27208,1.25346 -4.07897,3.02651 -5.98314,3.7794 -1.86421,0.73708 -4.60654,0.80856 -6.33737,0.16518 z m -55.780807,-9.17952 c -1.979158,-0.97551 -2.652757,-2.82517 -1.873114,-5.14346 0.452754,-1.34627 2.407689,-4.18233 3.811628,-5.52958 l 1.24072,-1.19063 -0.2105,1.71979 c -0.11577,0.94589 -0.21927,3.51716 -0.23,5.71393 -0.0208,4.25353 -0.18812,4.87537 -1.30869,4.86338 -0.3096,-0.003 -0.953121,-0.19836 -1.430044,-0.43343 z m 88.976999,0.0779 c -0.44489,-0.32531 -0.49841,-0.79555 -0.53454,-4.69635 -0.0221,-2.38416 -0.12728,-4.98969 -0.23379,-5.79005 l -0.19364,-1.45521 1.6698,1.75375 c 2.43062,2.55282 3.4772,4.42067 3.60545,6.4347 0.0932,1.46437 0.0314,1.71343 -0.61679,2.48375 -1.24998,1.48551 -2.71358,1.98813 -3.69649,1.26941 z M 53.498565,25.876225 c -1.03162,-0.98846 -1.19527,-1.29182 -1.19527,-2.21569 0,-1.40971 0.56483,-2.95414 1.70074,-4.65042 0.89421,-1.33534 3.562223,-4.28115 3.723133,-4.1108 0.0435,0.046 -0.0361,0.73849 -0.17677,1.53885 -0.14068,0.80037 -0.2775,3.39434 -0.30404,5.76438 -0.053,4.73481 -0.0786,4.80723 -1.697273,4.8149 -0.65118,0.003 -1.14046,-0.26922 -2.05052,-1.14122 z m 38.764583,0.37028 c -0.2183,-0.52702 -0.26144,-1.41071 -0.13484,-2.76178 0.10704,-1.14224 0.0486,-3.34963 -0.13735,-5.19284 -0.17794,-1.76333 -0.2647,-3.26487 -0.19281,-3.33676 0.25721,-0.25722 3.65913,4.00077 4.43181,5.54704 0.97165,1.94444 1.04775,3.59385 0.22146,4.79974 -0.72195,1.05362 -1.88177,1.71959 -2.99476,1.71959 -0.7153,0 -0.93033,-0.13963 -1.19351,-0.77499 z"
       id="path836" />
  </g>
</svg>
